<mxfile host="app.diagrams.net" modified="2023-04-30T19:20:33.164Z" agent="Mozilla/5.0 (Windows NT 10.0; Win64; x64) AppleWebKit/537.36 (KHTML, like Gecko) Chrome/112.0.0.0 Safari/537.36" version="21.2.3" etag="ndiXHLlAFTixyiydKivJ" type="github">
  <diagram name="Page-1" id="ZgQyZG9NzWmbTlg7LCCB">
    <mxGraphModel>
      <root>
        <mxCell id="0" />
        <mxCell id="1" parent="0" />
      </root>
    </mxGraphModel>
  </diagram>
</mxfile>
